<?xml version="1.0" encoding="UTF-8" standalone="no"?>
<!-- Generator: Adobe Illustrator 21.1.0, SVG Export Plug-In . SVG Version: 6.00 Build 0)  -->

<svg
   xmlns:dc="http://purl.org/dc/elements/1.1/"
   xmlns:cc="http://creativecommons.org/ns#"
   xmlns:rdf="http://www.w3.org/1999/02/22-rdf-syntax-ns#"
   xmlns:svg="http://www.w3.org/2000/svg"
   xmlns="http://www.w3.org/2000/svg"
   xmlns:sodipodi="http://sodipodi.sourceforge.net/DTD/sodipodi-0.dtd"
   xmlns:inkscape="http://www.inkscape.org/namespaces/inkscape"
   version="1.1"
   id="Layer_1"
   x="0px"
   y="0px"
   viewBox="0 0 512 512"
   style="enable-background:new 0 0 512 512;"
   xml:space="preserve"
   inkscape:version="0.91 r13725"
   sodipodi:docname="dashboard.svg"
   inkscape:export-filename="/Users/mac3/Desktop/web-admin-dashboard/public/images/dashboard.png"
   inkscape:export-xdpi="33"
   inkscape:export-ydpi="33"><metadata
     id="metadata28"><rdf:RDF><cc:Work
         rdf:about=""><dc:format>image/svg+xml</dc:format><dc:type
           rdf:resource="http://purl.org/dc/dcmitype/StillImage" /></cc:Work></rdf:RDF></metadata><defs
     id="defs26" /><sodipodi:namedview
     pagecolor="#ffffff"
     bordercolor="#666666"
     borderopacity="1"
     objecttolerance="10"
     gridtolerance="10"
     guidetolerance="10"
     inkscape:pageopacity="0"
     inkscape:pageshadow="2"
     inkscape:window-width="824"
     inkscape:window-height="480"
     id="namedview24"
     showgrid="false"
     inkscape:zoom="0.4609375"
     inkscape:cx="256"
     inkscape:cy="256"
     inkscape:window-x="268"
     inkscape:window-y="108"
     inkscape:window-maximized="0"
     inkscape:current-layer="Layer_1" /><style
     type="text/css"
     id="style3">
	.st0{fill:#066260;}
	.st1{fill:#3E3E3E;}
</style><g
     id="Settings_1_x40_2x.png_9_"
     style="fill:#333333"><g
       id="g10"
       style="fill:#333333"><path
         class="st0"
         d="m 489.2,206.2 -24.1,-6 c -5,-18.5 -12.3,-36.1 -21.7,-52.3 l 12.8,-21.3 c 3.9,-7.6 6.5,-17.1 0,-23.6 L 409.1,55.9 c -2.9,-2.9 -6.5,-4.1 -10.3,-4.1 -4.6,0 -9.3,1.7 -13.3,4.1 L 364,68.8 C 347.8,59.5 330.4,52.1 311.9,47.2 L 305.8,22.9 C 303.2,14.7 298.3,6.2 289.1,6.2 l -66.7,0 c -9.2,0 -14.6,8.5 -16.7,16.7 l -6.1,24.3 c -18.5,4.9 -35.9,12.3 -52.1,21.6 L 126,55.9 c -4,-2.4 -8.7,-4.1 -13.3,-4.1 -3.7,0 -7.3,1.2 -10.3,4.1 L 55.6,103 c -6.5,6.5 -3.9,15.9 0,23.6 l 12.8,21.3 C 59,164.1 51.6,181.7 46.7,200.2 l -24.1,6 c -8.2,2.1 -16.7,7.5 -16.7,16.7 l 0,66.7 c 0,9.2 8.5,14.1 16.7,16.7 l 24.1,6 c 5,18.5 12.3,36.1 21.7,52.3 l -12.8,21.3 c -4.3,7.2 -6.5,17.1 0,23.6 l 47.1,47.1 c 2.9,2.9 6.3,4 9.9,4 4.6,0 9.4,-1.8 13.7,-4 l 21.5,-12.9 c 16.2,9.3 33.6,16.7 52.1,21.6 l 6.1,24.3 c 2.1,8.2 7.5,16.7 16.7,16.7 l 66.7,0 c 9.2,0 14.1,-8.5 16.7,-16.7 l 6.1,-24.3 c 18.5,-4.9 35.9,-12.3 52.1,-21.6 l 21.5,12.9 c 4.3,2.2 9.1,4 13.6,4 3.6,0 7,-1.1 9.9,-4 l 47.1,-47.1 c 6.5,-6.5 4.3,-16.3 0,-23.6 l -12.8,-21.3 c 9.4,-16.2 16.8,-33.7 21.7,-52.3 l 24.1,-6 c 8.2,-2.6 16.7,-7.5 16.7,-16.7 l 0,-66.7 c -0.2,-9.2 -8.7,-14.6 -16.9,-16.7 z M 255.9,387.9 c -72.7,0 -131.7,-59 -131.7,-131.7 0,-72.7 59,-131.7 131.7,-131.7 72.7,0 131.7,59 131.7,131.7 0,72.7 -59,131.7 -131.7,131.7 z"
         id="path12"
         inkscape:connector-curvature="0"
         style="fill:#333333" /></g></g><g
     id="g14"
     style="fill:#f9f9f9"
     inkscape:export-xdpi="33"
     inkscape:export-ydpi="33"><g
       id="g16"
       style="fill:#f9f9f9"><g
         id="g18"
         style="fill:#f9f9f9"><g
           id="g20"
           style="fill:#f9f9f9"><path
             class="st1"
             d="m 255.9,387.7 c 0,0 0.1,-78.7 1.7,-83.5 5.5,-5 11.2,-9.5 16.6,-11.9 11.3,-4.9 21.4,-9.9 28.4,-16 L 499,190.1 c 4.3,-1.9 6.6,-6.9 5,-11.4 -1.5,-4.5 -6.2,-7.1 -10.9,-6 L 290,220.4 c -14.3,-9.2 -32.7,-11.4 -49.3,-4.1 -26.3,11.6 -38.2,42.2 -26.7,68.6 0.3,0.6 0.6,1.5 1,2.2 -4.9,13.1 -7.9,84.3 -5.7,91.4 1.2,3.7 27.4,9.2 46.6,9.2 z m 4.4,-132 c -9.8,4.3 -14.6,17.4 -18.9,7.8 -4.3,-9.8 0.1,-21.1 9.9,-25.4 9.8,-4.3 21.1,0.1 25.4,9.9 4.2,9.7 -6.7,3.5 -16.4,7.7 z"
             id="path22"
             inkscape:connector-curvature="0"
             style="fill:#f9f9f9" /></g></g></g></g></svg>